<?xml version="1.0" encoding="utf-8"?>
<!-- Generator: Adobe Illustrator 16.0.0, SVG Export Plug-In . SVG Version: 6.00 Build 0)  -->
<!DOCTYPE svg PUBLIC "-//W3C//DTD SVG 1.1//EN" "http://www.w3.org/Graphics/SVG/1.1/DTD/svg11.dtd">
<svg version="1.1" id="Capa_1" xmlns="http://www.w3.org/2000/svg" xmlns:xlink="http://www.w3.org/1999/xlink" x="0px" y="0px"
	 width="200px" height="100px" viewBox="0 0 200 100" enable-background="new 0 0 200 100" xml:space="preserve">
<g>
	<path fill="#EB661D" d="M37.693,23.897c1.488-1.221,3.094-2.152,4.788-2.82h-9.83v7.805C33.783,27.386,35.458,25.733,37.693,23.897
		"/>
	<path fill="#EB661D" d="M49.086,30.789c-5.214,0-9.112,1.449-11.81,4.262c-2.763,2.875-4.087,6.081-4.09,9.772v31.933h18.747
		V30.961c-0.404-0.058-0.802-0.106-1.166-0.125C50.26,30.802,49.703,30.789,49.086,30.789"/>
	<rect x="0.846" y="21.077" fill="#EB661D" width="20.552" height="55.671"/>
	<rect x="149.853" y="71.084" fill="#EB661D" width="4.878" height="5.237"/>
	<rect x="169.895" y="71.084" fill="#EB661D" width="4.892" height="5.237"/>
	<rect x="188.86" y="71.084" fill="#EB661D" width="4.891" height="5.237"/>
	<path fill="#878788" d="M119.703,42.422l20.814-20.836h-13.004l-21.632,22.082V1.513h-9.636v67.825
		c-0.139,0.003-0.312,0.037-0.445,0.049c-0.477,0.052-0.895,0.068-1.256,0.068c-1.156,0.016-1.718-0.284-1.887-0.578
		c-0.287-0.429-0.456-1.041-0.456-1.897V35.86c0.026-5.274-2.032-9.341-6.031-11.864c-3.983-2.496-9.119-3.718-15.369-3.718
		c-5.425,0-10.233,1.334-14.352,4.014c-4.272,2.74-6.45,7.678-6.609,14.479l-0.018,0.674h9.406l0.072-0.578
		c0.32-2.727,0.999-4.728,1.97-6.002c1.774-2.362,4.819-3.603,9.338-3.619c3.897,0,6.872,0.703,8.856,2.008
		c1.959,1.307,2.901,3.252,2.925,6.211c0,1.457-0.195,2.516-0.521,3.185c-0.586,1.256-1.694,2.011-3.612,2.266l-14.081,1.811
		c-5.029,0.658-9.158,2.394-12.312,5.235c-3.185,2.89-4.782,7.006-4.777,12.15c-0.005,4.728,1.634,8.75,4.845,11.888
		c3.21,3.158,7.368,4.738,12.356,4.738c4.145,0,7.959-0.911,11.406-2.737c2.95-1.545,5.336-3.366,7.116-5.43
		c0.325,1.577,0.786,2.868,1.395,3.896c1.493,2.422,3.965,3.637,7.137,3.622c1.262,0,2.269-0.049,3.026-0.159
		c0.77-0.109,1.834-0.373,3.221-0.778l0.453-0.127v-0.102h7.838v-20.64l6.469-6.495l16.207,27.134h12.674L119.703,42.422z
		 M57.534,61.913c0.023-3.271,1.236-5.467,3.781-6.974c1.496-0.876,3.859-1.566,7.012-1.985l5.336-0.713
		c1.655-0.203,3.356-0.539,5.087-1.012c1.285-0.372,2.422-0.807,3.395-1.311v6.197c-0.025,5.368-2.279,9.039-7.011,11.453
		c-2.841,1.429-5.759,2.147-8.779,2.147c-2.451,0-4.498-0.718-6.26-2.131C58.37,66.171,57.558,64.358,57.534,61.913"/>
	<path fill="#878788" d="M4.589,85.594v1.051c-0.364-0.166-0.679-0.252-0.944-0.252c-0.193,0-0.344,0.039-0.479,0.127
		c-0.122,0.083-0.208,0.182-0.241,0.294c-0.042,0.112-0.052,0.4-0.052,0.876v1.129h1.626v0.918H2.873v7.415H1.868v-7.415H0.846
		V88.82h1.022v-1.306c0-0.588,0.044-1.021,0.154-1.272c0.099-0.253,0.272-0.472,0.525-0.62c0.237-0.159,0.539-0.242,0.882-0.242
		C3.76,85.381,4.14,85.457,4.589,85.594"/>
	<path fill="#878788" d="M15.921,88.815v8.336h-0.986V95.72c-0.414,0.544-0.89,0.945-1.41,1.223
		c-0.518,0.271-1.095,0.419-1.709,0.419c-1.105,0-2.042-0.435-2.823-1.296c-0.77-0.843-1.157-1.878-1.157-3.106
		c0-1.197,0.388-2.232,1.168-3.088c0.794-0.854,1.732-1.275,2.841-1.275c0.641,0,1.216,0.159,1.723,0.435
		c0.521,0.304,0.976,0.731,1.369,1.309v-1.524H15.921z M11.924,89.627c-0.552,0-1.069,0.159-1.543,0.438
		c-0.465,0.299-0.843,0.721-1.119,1.238c-0.281,0.536-0.422,1.098-0.422,1.691c0,0.588,0.141,1.152,0.422,1.686
		c0.289,0.539,0.666,0.955,1.137,1.256c0.468,0.287,0.978,0.44,1.524,0.44c0.539,0,1.067-0.138,1.551-0.44
		c0.489-0.302,0.864-0.702,1.129-1.199c0.263-0.515,0.406-1.077,0.406-1.707c0-0.973-0.304-1.782-0.897-2.42
		C13.524,89.962,12.789,89.627,11.924,89.627 M12.536,84.915h1.533l-2.116,2.354H10.98L12.536,84.915z"/>
	<path fill="#878788" d="M20.417,97.151V85.589h1.005v4.665c0.423-0.559,0.889-0.971,1.407-1.241
		c0.521-0.265,1.087-0.416,1.694-0.416c1.106,0,2.05,0.435,2.823,1.291c0.777,0.848,1.165,1.884,1.165,3.109
		c0,1.205-0.388,2.238-1.184,3.094c-0.78,0.845-1.723,1.267-2.825,1.267c-0.627,0-1.197-0.138-1.723-0.429
		c-0.51-0.296-0.963-0.736-1.358-1.325v1.551h-1.005V97.151z M24.421,96.33c0.559,0,1.074-0.157,1.536-0.44
		c0.476-0.294,0.851-0.713,1.124-1.233c0.276-0.536,0.416-1.098,0.416-1.694s-0.14-1.15-0.416-1.691
		c-0.281-0.539-0.659-0.95-1.137-1.249c-0.466-0.297-0.976-0.456-1.504-0.456c-0.546,0-1.072,0.153-1.559,0.456
		c-0.497,0.293-0.872,0.694-1.139,1.205c-0.248,0.497-0.391,1.071-0.391,1.704c0,0.963,0.294,1.783,0.892,2.42
		C22.836,96.004,23.567,96.33,24.421,96.33"/>
	<path fill="#878788" d="M32.146,88.815h1.022v1.215c0.312-0.484,0.629-0.848,0.965-1.083c0.338-0.239,0.679-0.354,1.059-0.354
		c0.268,0,0.564,0.102,0.884,0.294l-0.525,0.898c-0.203-0.091-0.377-0.149-0.528-0.149c-0.328,0-0.653,0.149-0.962,0.451
		c-0.305,0.286-0.539,0.744-0.7,1.36c-0.125,0.481-0.192,1.434-0.192,2.883v2.82h-1.022V88.815z"/>
	<path fill="#878788" d="M39.47,85.381c0.219,0,0.411,0.083,0.583,0.26c0.156,0.174,0.234,0.382,0.234,0.626
		c0,0.245-0.078,0.445-0.234,0.623c-0.172,0.182-0.364,0.262-0.583,0.262c-0.227,0-0.426-0.08-0.59-0.262
		c-0.146-0.18-0.234-0.377-0.234-0.623c0-0.244,0.089-0.453,0.234-0.626C39.043,85.464,39.243,85.381,39.47,85.381 M38.968,88.815
		h0.999v8.336h-0.999V88.815z"/>
	<path fill="#878788" d="M51.782,90.548l-0.81,0.52c-0.674-0.965-1.605-1.459-2.792-1.459c-0.941,0-1.735,0.328-2.362,0.973
		c-0.623,0.663-0.942,1.457-0.942,2.391c0,0.603,0.151,1.181,0.445,1.717c0.283,0.533,0.679,0.939,1.184,1.246
		c0.492,0.289,1.057,0.432,1.683,0.432c1.14,0,2.071-0.481,2.784-1.455l0.81,0.546c-0.375,0.606-0.872,1.072-1.501,1.4
		c-0.632,0.328-1.34,0.497-2.142,0.497c-1.225,0-2.248-0.422-3.06-1.251c-0.807-0.846-1.199-1.853-1.199-3.065
		c0-0.789,0.182-1.551,0.56-2.232c0.382-0.703,0.892-1.241,1.561-1.626c0.66-0.39,1.391-0.588,2.219-0.588
		c0.515,0,1.014,0.081,1.486,0.255c0.484,0.169,0.887,0.39,1.223,0.656C51.254,89.786,51.54,90.121,51.782,90.548"/>
	<path fill="#878788" d="M63.633,88.815v8.336h-0.989V95.72c-0.421,0.544-0.89,0.945-1.416,1.223
		c-0.518,0.271-1.087,0.419-1.717,0.419c-1.098,0-2.03-0.435-2.808-1.296c-0.78-0.843-1.16-1.874-1.16-3.109
		c0-1.194,0.388-2.23,1.168-3.085c0.793-0.854,1.743-1.275,2.838-1.275c0.646,0,1.208,0.159,1.728,0.435
		c0.528,0.304,0.973,0.731,1.368,1.309v-1.524H63.633z M59.626,89.627c-0.56,0-1.064,0.159-1.533,0.438
		c-0.476,0.299-0.845,0.721-1.129,1.238c-0.271,0.536-0.413,1.098-0.413,1.688c0,0.591,0.143,1.155,0.419,1.688
		c0.278,0.539,0.648,0.955,1.132,1.256c0.476,0.287,0.983,0.44,1.519,0.44c0.549,0,1.069-0.138,1.556-0.44
		c0.494-0.302,0.872-0.702,1.135-1.202c0.252-0.512,0.39-1.074,0.39-1.704c0-0.973-0.289-1.782-0.884-2.42
		C61.229,89.962,60.49,89.627,59.626,89.627"/>
	<path fill="#878788" d="M82.065,85.594v11.557h-0.992v-1.433c-0.418,0.541-0.887,0.947-1.405,1.225
		c-0.522,0.268-1.1,0.414-1.72,0.414c-1.09,0-2.029-0.432-2.802-1.295c-0.791-0.838-1.178-1.873-1.178-3.107
		c0-1.197,0.388-2.23,1.178-3.085c0.792-0.854,1.736-1.275,2.833-1.275c0.646,0,1.226,0.157,1.738,0.432
		c0.518,0.302,0.973,0.728,1.355,1.314v-4.746H82.065z M78.065,89.627c-0.554,0-1.064,0.159-1.541,0.438
		c-0.46,0.299-0.84,0.721-1.124,1.238c-0.276,0.536-0.411,1.098-0.411,1.688c0,0.591,0.135,1.155,0.411,1.688
		c0.292,0.539,0.664,0.955,1.145,1.256c0.461,0.287,0.966,0.44,1.509,0.44c0.544,0,1.074-0.138,1.561-0.44
		c0.484-0.302,0.856-0.702,1.122-1.202c0.263-0.512,0.395-1.074,0.395-1.704c0-0.973-0.293-1.782-0.882-2.42
		C79.668,89.962,78.929,89.627,78.065,89.627"/>
	<path fill="#878788" d="M93.06,94.391l0.843,0.458c-0.284,0.588-0.601,1.049-0.962,1.41c-0.359,0.37-0.763,0.641-1.226,0.82
		c-0.447,0.182-0.962,0.278-1.524,0.278c-1.28,0-2.266-0.44-2.981-1.335c-0.713-0.895-1.067-1.894-1.067-3.023
		c0-1.057,0.305-1.996,0.898-2.833c0.77-1.038,1.798-1.572,3.078-1.572c1.329,0,2.388,0.542,3.177,1.619
		c0.57,0.749,0.845,1.709,0.863,2.857h-6.991c0.023,0.959,0.312,1.761,0.861,2.365c0.557,0.627,1.251,0.934,2.079,0.934
		c0.379,0,0.773-0.068,1.147-0.213c0.37-0.151,0.692-0.351,0.955-0.593C92.472,95.32,92.756,94.927,93.06,94.391 M93.06,92.133
		c-0.138-0.56-0.33-1.028-0.587-1.358c-0.253-0.356-0.588-0.638-1.015-0.837c-0.416-0.211-0.853-0.315-1.316-0.315
		c-0.771,0-1.413,0.265-1.968,0.796c-0.405,0.391-0.694,0.947-0.913,1.709L93.06,92.133z"/>
	<path fill="#878788" d="M108.358,89.729l-0.64,0.71c-0.528-0.552-1.064-0.843-1.571-0.843c-0.323,0-0.601,0.13-0.823,0.356
		c-0.234,0.219-0.364,0.487-0.364,0.799c0,0.278,0.099,0.528,0.289,0.778c0.19,0.242,0.596,0.539,1.21,0.872
		c0.744,0.421,1.241,0.822,1.506,1.199c0.271,0.386,0.406,0.833,0.406,1.309c0,0.687-0.226,1.264-0.671,1.743
		c-0.456,0.477-1.015,0.718-1.686,0.718c-0.445,0-0.879-0.102-1.288-0.317c-0.403-0.208-0.739-0.505-1.001-0.864l0.625-0.768
		c0.502,0.609,1.046,0.921,1.626,0.921c0.398,0,0.729-0.136,1.017-0.404c0.281-0.278,0.424-0.596,0.424-0.981
		c0-0.296-0.093-0.577-0.281-0.827c-0.185-0.229-0.593-0.523-1.254-0.882c-0.705-0.385-1.191-0.758-1.425-1.14
		c-0.257-0.373-0.388-0.807-0.388-1.293c0-0.635,0.21-1.173,0.606-1.584c0.4-0.416,0.913-0.625,1.524-0.625
		C106.92,88.597,107.63,88.974,108.358,89.729"/>
	<path fill="#878788" d="M115.998,88.597c1.188,0,2.175,0.468,2.984,1.397c0.71,0.84,1.064,1.855,1.064,3.011
		c0,1.158-0.385,2.183-1.14,3.044c-0.75,0.879-1.722,1.309-2.909,1.309c-1.189,0-2.17-0.429-2.925-1.309
		c-0.757-0.861-1.134-1.886-1.134-3.044c0-1.155,0.354-2.154,1.075-2.998C113.799,89.064,114.804,88.597,115.998,88.597
		 M115.998,89.646c-0.83,0-1.551,0.343-2.142,0.981c-0.606,0.663-0.892,1.464-0.892,2.401c0,0.604,0.132,1.173,0.408,1.687
		c0.263,0.515,0.629,0.916,1.088,1.207c0.471,0.286,0.981,0.419,1.538,0.419c0.549,0,1.064-0.133,1.521-0.419
		c0.456-0.292,0.83-0.692,1.098-1.207c0.281-0.513,0.414-1.083,0.414-1.687c0-0.941-0.312-1.741-0.906-2.401
		C117.522,89.989,116.82,89.646,115.998,89.646"/>
	<rect x="123.941" y="85.594" fill="#878788" width="0.996" height="11.557"/>
	<path fill="#878788" d="M129.085,88.815h1.001v3.887c0,0.955,0.034,1.607,0.133,1.961c0.143,0.51,0.418,0.903,0.814,1.207
		c0.411,0.302,0.893,0.442,1.45,0.442c0.551,0,1.022-0.138,1.42-0.424c0.396-0.294,0.65-0.671,0.801-1.142
		c0.104-0.32,0.158-1.001,0.158-2.045v-3.89h1.002v4.083c0,1.16-0.114,2.021-0.359,2.602c-0.252,0.591-0.637,1.046-1.129,1.366
		c-0.505,0.344-1.132,0.495-1.894,0.495c-0.757,0-1.392-0.153-1.897-0.495c-0.5-0.32-0.88-0.796-1.129-1.371
		c-0.247-0.593-0.373-1.475-0.373-2.665V88.815z"/>
	<path fill="#878788" d="M147.829,90.548l-0.796,0.52c-0.689-0.965-1.605-1.459-2.799-1.459c-0.947,0-1.736,0.328-2.365,0.973
		c-0.611,0.663-0.937,1.457-0.937,2.391c0,0.603,0.148,1.181,0.44,1.717c0.273,0.533,0.682,0.939,1.176,1.246
		c0.499,0.289,1.066,0.432,1.686,0.432c1.155,0,2.079-0.481,2.799-1.455l0.796,0.546c-0.372,0.606-0.872,1.072-1.504,1.4
		c-0.624,0.328-1.332,0.497-2.12,0.497c-1.239,0-2.258-0.422-3.065-1.251c-0.812-0.846-1.209-1.853-1.209-3.065
		c0-0.789,0.185-1.551,0.562-2.232c0.385-0.703,0.9-1.241,1.576-1.626c0.661-0.39,1.385-0.588,2.212-0.588
		c0.51,0,1.007,0.081,1.493,0.255c0.477,0.169,0.875,0.39,1.208,0.656C147.313,89.786,147.589,90.121,147.829,90.548"/>
	<path fill="#878788" d="M152.286,85.381c0.224,0,0.427,0.083,0.581,0.26c0.164,0.174,0.241,0.382,0.241,0.626
		c0,0.245-0.078,0.445-0.241,0.623c-0.153,0.182-0.357,0.262-0.581,0.262c-0.221,0-0.414-0.08-0.578-0.262
		c-0.161-0.18-0.234-0.377-0.234-0.623c0-0.244,0.073-0.453,0.234-0.626C151.872,85.464,152.064,85.381,152.286,85.381
		 M151.789,88.815h0.996v8.336h-0.996V88.815z"/>
	<path fill="#878788" d="M160.739,88.597c1.202,0,2.188,0.468,2.96,1.397c0.729,0.84,1.088,1.855,1.088,3.011
		c0,1.158-0.37,2.183-1.137,3.044c-0.755,0.879-1.725,1.309-2.912,1.309c-1.202,0-2.175-0.429-2.915-1.309
		c-0.762-0.861-1.143-1.886-1.143-3.044c0-1.155,0.352-2.154,1.073-2.998C158.535,89.064,159.532,88.597,160.739,88.597
		 M160.727,89.646c-0.822,0-1.538,0.343-2.139,0.981c-0.601,0.663-0.888,1.464-0.888,2.401c0,0.604,0.148,1.173,0.412,1.687
		c0.266,0.515,0.635,0.916,1.104,1.207c0.455,0.286,0.965,0.419,1.512,0.419c0.569,0,1.077-0.133,1.54-0.419
		c0.468-0.292,0.835-0.692,1.098-1.207c0.27-0.513,0.417-1.083,0.417-1.687c0-0.941-0.302-1.741-0.911-2.401
		C162.269,89.989,161.568,89.646,160.727,89.646"/>
	<path fill="#878788" d="M168.825,88.815h1v1.49c0.4-0.569,0.84-0.996,1.34-1.288c0.471-0.273,1.001-0.424,1.571-0.424
		c0.593,0,1.095,0.164,1.551,0.482c0.457,0.31,0.775,0.731,0.989,1.288c0.221,0.528,0.332,1.361,0.332,2.49v4.298h-1.004V93.17
		c0-0.955-0.036-1.597-0.112-1.925c-0.117-0.554-0.344-0.965-0.676-1.238c-0.318-0.281-0.75-0.429-1.284-0.429
		c-0.606,0-1.134,0.227-1.61,0.648c-0.486,0.434-0.804,0.968-0.955,1.592c-0.098,0.416-0.143,1.17-0.143,2.269v3.065h-0.994
		L168.825,88.815z"/>
	<path fill="#878788" d="M186.471,94.391l0.846,0.458c-0.284,0.588-0.597,1.049-0.956,1.41c-0.364,0.37-0.77,0.641-1.218,0.82
		c-0.457,0.182-0.972,0.278-1.54,0.278c-1.272,0-2.261-0.44-2.974-1.335c-0.708-0.895-1.075-1.894-1.075-3.023
		c0-1.057,0.302-1.996,0.914-2.833c0.756-1.038,1.788-1.572,3.082-1.572c1.317,0,2.376,0.542,3.167,1.619
		c0.55,0.749,0.852,1.709,0.86,2.857h-6.989c0.012,0.959,0.307,1.761,0.864,2.365c0.56,0.627,1.246,0.934,2.061,0.934
		c0.404,0,0.781-0.068,1.163-0.213c0.367-0.151,0.682-0.351,0.955-0.593C185.883,95.32,186.169,94.927,186.471,94.391
		 M186.471,92.133c-0.133-0.56-0.331-1.028-0.577-1.358c-0.26-0.356-0.597-0.638-1.009-0.837c-0.428-0.211-0.857-0.315-1.322-0.315
		c-0.763,0-1.423,0.265-1.97,0.796c-0.403,0.391-0.697,0.947-0.895,1.709L186.471,92.133z"/>
	<path fill="#878788" d="M195.53,89.729l-0.63,0.71c-0.543-0.552-1.063-0.843-1.568-0.843c-0.332,0-0.609,0.13-0.844,0.356
		c-0.233,0.219-0.346,0.487-0.346,0.799c0,0.278,0.094,0.528,0.295,0.778c0.185,0.242,0.593,0.539,1.207,0.872
		c0.731,0.421,1.241,0.822,1.521,1.199c0.248,0.386,0.38,0.833,0.38,1.309c0,0.687-0.208,1.264-0.676,1.743
		c-0.445,0.477-1.002,0.718-1.671,0.718c-0.454,0-0.88-0.102-1.288-0.317c-0.402-0.208-0.74-0.505-1.001-0.864l0.619-0.768
		c0.515,0.609,1.064,0.921,1.621,0.921c0.403,0,0.738-0.136,1.027-0.404c0.289-0.278,0.421-0.596,0.421-0.981
		c0-0.296-0.099-0.577-0.282-0.827c-0.186-0.229-0.606-0.523-1.26-0.882c-0.698-0.385-1.179-0.758-1.418-1.14
		c-0.255-0.373-0.385-0.807-0.385-1.293c0-0.635,0.202-1.173,0.619-1.584c0.39-0.416,0.899-0.625,1.509-0.625
		C194.089,88.597,194.814,88.974,195.53,89.729"/>
	<path fill="#878788" d="M199.34,88.641c-0.006,0.778-0.625,1.382-1.421,1.382c-0.782-0.008-1.409-0.62-1.402-1.403
		c0.003-0.754,0.638-1.364,1.423-1.358C198.73,87.268,199.34,87.884,199.34,88.641 M196.871,88.623c0,0.616,0.45,1.103,1.063,1.103
		c0.602,0.003,1.046-0.476,1.049-1.08c0-0.611-0.438-1.106-1.049-1.106C197.329,87.535,196.876,88.027,196.871,88.623
		 M197.714,89.354l-0.322-0.003l0.007-1.374c0.133-0.023,0.299-0.037,0.529-0.034c0.257,0,0.376,0.039,0.476,0.101
		c0.075,0.06,0.135,0.167,0.133,0.302c0,0.148-0.123,0.26-0.283,0.318v0.015c0.133,0.05,0.202,0.146,0.243,0.336
		c0.04,0.211,0.068,0.294,0.1,0.343h-0.343c-0.042-0.058-0.068-0.177-0.109-0.336c-0.023-0.151-0.106-0.218-0.284-0.218
		l-0.146-0.006V89.354z M197.724,88.573l0.151,0.005c0.174,0,0.316-0.062,0.316-0.206c0-0.12-0.09-0.206-0.293-0.206
		c-0.08,0-0.14,0.005-0.175,0.013V88.573z"/>
	<path fill="#878788" d="M151.864,26.964c-0.015,3.002-2.378,5.339-5.448,5.323c-3.039-0.023-5.453-2.391-5.438-5.398
		c0.026-2.94,2.465-5.282,5.506-5.264C149.546,21.654,151.89,24.024,151.864,26.964 M142.344,26.899
		c-0.019,2.363,1.717,4.241,4.101,4.254c2.326,0.013,4.048-1.848,4.069-4.174c0.005-2.359-1.697-4.272-4.051-4.282
		C144.116,22.689,142.354,24.583,142.344,26.899 M145.588,29.699l-1.226-0.01l0.029-5.29c0.492-0.099,1.158-0.151,2.037-0.144
		c0.997,0,1.455,0.162,1.839,0.396c0.287,0.229,0.507,0.653,0.507,1.168c0,0.575-0.455,1.02-1.105,1.215v0.068
		c0.518,0.192,0.801,0.583,0.955,1.299c0.151,0.809,0.256,1.131,0.383,1.322l-1.324-0.003c-0.167-0.198-0.266-0.682-0.417-1.296
		c-0.086-0.58-0.406-0.845-1.09-0.845l-0.585-0.003L145.588,29.699z M145.64,26.691l0.578,0.013c0.679,0,1.226-0.227,1.23-0.775
		c0-0.481-0.346-0.807-1.129-0.809c-0.32-0.008-0.546,0.026-0.671,0.068L145.64,26.691z"/>
</g>
</svg>
