<?xml version="1.0" encoding="utf-8"?>
<!-- Generator: Adobe Illustrator 16.0.0, SVG Export Plug-In . SVG Version: 6.00 Build 0)  -->
<!DOCTYPE svg PUBLIC "-//W3C//DTD SVG 1.1//EN" "http://www.w3.org/Graphics/SVG/1.1/DTD/svg11.dtd">
<svg version="1.1" id="Capa_1" xmlns="http://www.w3.org/2000/svg" xmlns:xlink="http://www.w3.org/1999/xlink" x="0px" y="0px"
	 width="100px" height="70px" viewBox="0 0 100 70" enable-background="new 0 0 100 70" xml:space="preserve">
<g>
	<path fill="#FFFFFF" d="M19.932,22.305c0.74-0.605,1.535-1.069,2.378-1.401h-4.886v3.88C17.984,24.039,18.817,23.217,19.932,22.305
		"/>
	<path fill="#FFFFFF" d="M25.592,25.73c-2.591,0-4.526,0.72-5.868,2.118c-1.375,1.429-2.034,3.022-2.036,4.858v15.87h9.321V25.815
		c-0.202-0.028-0.4-0.054-0.582-0.062C26.174,25.736,25.896,25.73,25.592,25.73"/>
	<rect x="1.617" y="20.903" fill="#FFFFFF" width="10.215" height="27.671"/>
	<rect x="75.673" y="45.76" fill="#FFFFFF" width="2.427" height="2.602"/>
	<rect x="85.634" y="45.76" fill="#FFFFFF" width="2.431" height="2.602"/>
	<rect x="95.064" y="45.76" fill="#FFFFFF" width="2.43" height="2.602"/>
	<path fill="#FFFFFF" d="M60.693,31.514l10.339-10.358h-6.46L53.82,32.134V11.181h-4.792v33.709
		c-0.068,0.004-0.156,0.021-0.221,0.023c-0.235,0.023-0.444,0.033-0.623,0.033c-0.573,0.008-0.856-0.145-0.94-0.287
		c-0.141-0.215-0.226-0.518-0.226-0.94V28.252c0.01-2.624-1.012-4.644-2.999-5.896c-1.979-1.239-4.532-1.85-7.638-1.85
		c-2.698,0-5.084,0.664-7.133,1.997c-2.122,1.359-3.202,3.813-3.284,7.195l-0.009,0.336h4.677l0.035-0.287
		c0.157-1.356,0.498-2.351,0.98-2.983c0.879-1.177,2.394-1.791,4.641-1.799c1.937,0,3.414,0.35,4.401,0.998
		c0.973,0.648,1.442,1.615,1.454,3.087c0,0.723-0.098,1.249-0.26,1.582c-0.29,0.625-0.843,1-1.795,1.128l-6.996,0.898
		c-2.501,0.326-4.553,1.188-6.118,2.604c-1.584,1.437-2.379,3.479-2.379,6.037c0,2.35,0.813,4.348,2.406,5.908
		c1.599,1.57,3.667,2.355,6.144,2.355c2.062,0,3.955-0.451,5.672-1.36c1.462-0.769,2.652-1.673,3.537-2.698
		c0.159,0.782,0.388,1.424,0.69,1.938c0.746,1.201,1.971,1.811,3.549,1.799c0.626,0,1.127-0.024,1.503-0.076
		c0.381-0.057,0.911-0.188,1.601-0.389l0.225-0.062V48.66h3.896V38.398l3.216-3.227L65.09,48.66h6.301L60.693,31.514z
		 M29.793,41.198c0.013-1.625,0.611-2.716,1.877-3.466c0.744-0.436,1.914-0.775,3.485-0.985l2.651-0.354
		c0.825-0.102,1.666-0.271,2.527-0.504c0.642-0.185,1.206-0.398,1.688-0.652v3.082c-0.009,2.668-1.132,4.494-3.485,5.691
		c-1.413,0.713-2.86,1.067-4.362,1.067c-1.22,0-2.234-0.354-3.111-1.062C30.208,43.318,29.805,42.415,29.793,41.198"/>
	<path fill="#FFFFFF" d="M3.477,52.971v0.522c-0.178-0.084-0.336-0.127-0.469-0.127c-0.094,0-0.171,0.02-0.237,0.063
		c-0.061,0.04-0.104,0.088-0.121,0.144c-0.021,0.058-0.024,0.2-0.024,0.437v0.562h0.808v0.457H2.623v3.685H2.125v-3.685H1.617
		v-0.457h0.507v-0.649c0-0.291,0.02-0.508,0.073-0.633c0.052-0.125,0.138-0.233,0.264-0.31c0.119-0.078,0.266-0.117,0.438-0.117
		C3.062,52.863,3.25,52.902,3.477,52.971"/>
	<path fill="#FFFFFF" d="M9.106,54.572v4.142H8.617v-0.712c-0.206,0.271-0.442,0.475-0.701,0.611
		c-0.258,0.134-0.544,0.205-0.847,0.205c-0.55,0-1.019-0.217-1.406-0.645c-0.381-0.421-0.572-0.934-0.572-1.545
		c0-0.595,0.191-1.107,0.58-1.531c0.396-0.428,0.86-0.637,1.412-0.637c0.317,0,0.606,0.077,0.856,0.216
		c0.261,0.15,0.487,0.363,0.679,0.649V54.57h0.488V54.572z M7.12,54.977c-0.271,0-0.527,0.076-0.763,0.223
		c-0.231,0.145-0.421,0.354-0.558,0.609c-0.138,0.27-0.211,0.545-0.211,0.838s0.074,0.574,0.211,0.84
		c0.141,0.267,0.329,0.475,0.562,0.623c0.233,0.143,0.487,0.222,0.757,0.222c0.272,0,0.534-0.07,0.773-0.222
		c0.245-0.148,0.431-0.348,0.562-0.598c0.131-0.256,0.2-0.533,0.2-0.849c0-0.483-0.151-0.886-0.445-1.202
		C7.917,55.143,7.552,54.977,7.12,54.977 M7.425,52.633h0.766l-1.054,1.169H6.654L7.425,52.633z"/>
	<path fill="#FFFFFF" d="M11.344,58.712v-5.741h0.5v2.314c0.207-0.276,0.442-0.48,0.697-0.616c0.26-0.132,0.542-0.205,0.846-0.205
		c0.546,0,1.015,0.216,1.401,0.642c0.386,0.422,0.578,0.938,0.578,1.543c0,0.602-0.192,1.113-0.585,1.539
		c-0.389,0.422-0.858,0.633-1.41,0.633c-0.308,0-0.593-0.069-0.85-0.215c-0.257-0.147-0.481-0.366-0.678-0.656v0.767h-0.499V58.712z
		 M13.333,58.307c0.277,0,0.534-0.078,0.763-0.221c0.239-0.146,0.423-0.354,0.561-0.613c0.135-0.264,0.206-0.543,0.206-0.842
		c0-0.295-0.07-0.57-0.206-0.84c-0.142-0.268-0.33-0.473-0.565-0.62c-0.232-0.147-0.484-0.226-0.752-0.226
		c-0.27,0-0.527,0.076-0.771,0.226c-0.249,0.147-0.434,0.347-0.565,0.599c-0.124,0.25-0.195,0.532-0.195,0.85
		c0,0.48,0.145,0.886,0.443,1.201C12.544,58.146,12.906,58.307,13.333,58.307"/>
	<path fill="#FFFFFF" d="M17.175,54.572h0.505v0.604c0.154-0.24,0.313-0.42,0.48-0.535c0.168-0.119,0.341-0.178,0.523-0.178
		c0.138,0,0.282,0.051,0.44,0.145l-0.261,0.447c-0.101-0.047-0.186-0.076-0.263-0.076c-0.163,0-0.323,0.076-0.477,0.225
		c-0.153,0.146-0.27,0.371-0.35,0.678c-0.064,0.238-0.096,0.713-0.096,1.434v1.403h-0.505v-4.145L17.175,54.572L17.175,54.572z"/>
	<path fill="#FFFFFF" d="M20.811,52.863c0.11,0,0.204,0.045,0.292,0.129c0.077,0.086,0.118,0.191,0.118,0.312
		c0,0.12-0.041,0.221-0.118,0.312c-0.088,0.088-0.182,0.129-0.292,0.129c-0.112,0-0.209-0.041-0.294-0.129
		c-0.07-0.093-0.113-0.189-0.113-0.312c0-0.123,0.043-0.229,0.113-0.312C20.601,52.908,20.699,52.863,20.811,52.863 M20.562,54.572
		h0.497v4.142h-0.497V54.572z"/>
	<path fill="#FFFFFF" d="M26.93,55.434l-0.399,0.26c-0.338-0.481-0.799-0.727-1.39-0.727c-0.465,0-0.861,0.163-1.17,0.482
		c-0.312,0.326-0.467,0.724-0.467,1.188c0,0.303,0.073,0.588,0.217,0.854c0.141,0.268,0.339,0.47,0.589,0.618
		c0.247,0.146,0.525,0.222,0.836,0.222c0.568,0,1.034-0.241,1.386-0.729l0.399,0.272c-0.185,0.302-0.434,0.53-0.746,0.694
		c-0.313,0.164-0.666,0.248-1.062,0.248c-0.608,0-1.117-0.211-1.521-0.625c-0.401-0.418-0.6-0.92-0.6-1.521
		c0-0.395,0.091-0.771,0.279-1.109c0.189-0.352,0.444-0.615,0.775-0.81c0.329-0.19,0.693-0.291,1.104-0.291
		c0.257,0,0.501,0.039,0.738,0.127c0.239,0.082,0.439,0.192,0.607,0.327C26.667,55.055,26.81,55.219,26.93,55.434"/>
	<path fill="#FFFFFF" d="M32.821,54.572v4.142H32.33v-0.712c-0.211,0.271-0.444,0.475-0.702,0.611
		c-0.257,0.134-0.542,0.205-0.854,0.205c-0.544,0-1.01-0.217-1.395-0.645c-0.39-0.421-0.579-0.934-0.579-1.545
		c0-0.595,0.191-1.107,0.583-1.531c0.392-0.428,0.862-0.637,1.406-0.637c0.321,0,0.602,0.077,0.862,0.216
		c0.26,0.15,0.479,0.363,0.677,0.649V54.57h0.492L32.821,54.572L32.821,54.572z M30.833,54.977c-0.278,0-0.528,0.078-0.761,0.223
		c-0.237,0.145-0.421,0.354-0.562,0.609c-0.139,0.27-0.208,0.543-0.208,0.838c0,0.293,0.069,0.574,0.211,0.84
		c0.139,0.267,0.321,0.475,0.562,0.623c0.237,0.143,0.49,0.219,0.756,0.219c0.272,0,0.532-0.067,0.772-0.219
		c0.248-0.148,0.433-0.348,0.566-0.598c0.125-0.256,0.196-0.533,0.196-0.849c0-0.483-0.149-0.886-0.44-1.204
		C31.625,55.143,31.261,54.977,30.833,54.977"/>
	<path fill="#FFFFFF" d="M41.982,52.971v5.741H41.49v-0.71c-0.209,0.27-0.44,0.475-0.696,0.609c-0.26,0.136-0.546,0.205-0.857,0.205
		c-0.542,0-1.01-0.215-1.394-0.644c-0.393-0.42-0.583-0.933-0.583-1.545c0-0.596,0.191-1.106,0.583-1.532
		c0.395-0.427,0.862-0.637,1.41-0.637c0.318,0,0.605,0.079,0.862,0.217c0.258,0.149,0.481,0.364,0.673,0.648v-2.357L41.982,52.971
		L41.982,52.971z M39.996,54.977c-0.274,0-0.531,0.078-0.767,0.223c-0.229,0.145-0.417,0.354-0.558,0.609
		c-0.137,0.27-0.206,0.543-0.206,0.838c0,0.293,0.069,0.574,0.206,0.84c0.141,0.267,0.329,0.475,0.565,0.623
		c0.23,0.143,0.484,0.219,0.752,0.219c0.271,0,0.532-0.067,0.777-0.219c0.24-0.148,0.426-0.348,0.558-0.598
		c0.131-0.256,0.2-0.533,0.2-0.849c0-0.483-0.15-0.886-0.442-1.204C40.792,55.143,40.425,54.977,39.996,54.977"/>
	<path fill="#FFFFFF" d="M47.448,57.342l0.417,0.229c-0.139,0.291-0.296,0.522-0.478,0.701c-0.18,0.186-0.378,0.314-0.609,0.406
		c-0.221,0.092-0.476,0.141-0.757,0.141c-0.634,0-1.124-0.221-1.483-0.664c-0.353-0.443-0.529-0.94-0.529-1.502
		c0-0.522,0.152-0.991,0.447-1.406c0.379-0.518,0.893-0.781,1.531-0.781c0.657,0,1.184,0.271,1.578,0.805
		c0.281,0.377,0.42,0.852,0.428,1.42h-3.475c0.008,0.479,0.154,0.875,0.429,1.176c0.276,0.312,0.622,0.467,1.032,0.467
		c0.189,0,0.386-0.033,0.566-0.107c0.187-0.074,0.35-0.175,0.477-0.293C47.155,57.805,47.295,57.609,47.448,57.342 M47.448,56.221
		c-0.069-0.277-0.165-0.513-0.293-0.678c-0.124-0.174-0.29-0.314-0.503-0.413c-0.206-0.104-0.425-0.157-0.654-0.157
		c-0.384,0-0.701,0.131-0.979,0.396c-0.202,0.189-0.344,0.47-0.452,0.852H47.448z"/>
	<path fill="#FFFFFF" d="M55.049,55.023l-0.314,0.354c-0.262-0.273-0.526-0.419-0.781-0.419c-0.157,0-0.299,0.062-0.409,0.177
		c-0.116,0.108-0.178,0.242-0.178,0.396c0,0.14,0.047,0.265,0.146,0.388c0.094,0.117,0.295,0.271,0.598,0.435
		c0.371,0.211,0.617,0.407,0.75,0.597c0.136,0.192,0.201,0.414,0.201,0.651c0,0.34-0.113,0.627-0.334,0.862
		c-0.229,0.235-0.502,0.354-0.836,0.354c-0.224,0-0.438-0.049-0.643-0.155c-0.199-0.103-0.366-0.246-0.497-0.431l0.312-0.381
		c0.25,0.303,0.521,0.461,0.811,0.461c0.197,0,0.363-0.067,0.505-0.203c0.142-0.143,0.21-0.297,0.21-0.487
		c0-0.146-0.047-0.288-0.139-0.407c-0.096-0.115-0.297-0.265-0.623-0.441c-0.352-0.191-0.592-0.377-0.711-0.564
		c-0.133-0.188-0.191-0.4-0.191-0.646c0-0.312,0.105-0.58,0.299-0.787c0.202-0.205,0.454-0.31,0.758-0.31
		C54.337,54.464,54.689,54.65,55.049,55.023"/>
	<path fill="#FFFFFF" d="M58.85,54.464c0.592,0,1.084,0.231,1.481,0.69c0.354,0.422,0.53,0.924,0.53,1.498
		c0,0.576-0.191,1.084-0.565,1.514c-0.375,0.438-0.858,0.65-1.444,0.65c-0.596,0-1.078-0.215-1.455-0.65
		c-0.377-0.43-0.562-0.938-0.562-1.514c0-0.574,0.177-1.069,0.535-1.488C57.756,54.697,58.253,54.464,58.85,54.464 M58.85,54.986
		c-0.412,0-0.771,0.166-1.063,0.483c-0.302,0.331-0.444,0.729-0.444,1.191c0,0.303,0.062,0.583,0.205,0.84
		c0.133,0.258,0.312,0.453,0.541,0.601c0.23,0.142,0.48,0.209,0.768,0.209c0.271,0,0.523-0.067,0.752-0.209
		c0.229-0.146,0.414-0.343,0.549-0.601c0.14-0.257,0.205-0.537,0.205-0.84c0-0.464-0.15-0.86-0.446-1.191
		C59.609,55.152,59.259,54.986,58.85,54.986"/>
	<rect x="62.796" y="52.971" fill="#FFFFFF" width="0.495" height="5.743"/>
	<path fill="#FFFFFF" d="M65.352,54.572h0.498v1.931c0,0.476,0.021,0.799,0.065,0.978c0.073,0.252,0.211,0.447,0.409,0.6
		c0.203,0.15,0.438,0.221,0.72,0.221c0.272,0,0.507-0.066,0.701-0.211c0.196-0.146,0.328-0.331,0.397-0.564
		c0.053-0.156,0.084-0.5,0.084-1.02v-1.932h0.498v2.027c0,0.578-0.06,1.006-0.184,1.293c-0.125,0.293-0.314,0.521-0.562,0.681
		c-0.25,0.168-0.562,0.245-0.938,0.245c-0.38,0-0.693-0.077-0.943-0.245c-0.25-0.16-0.438-0.397-0.563-0.685
		c-0.124-0.295-0.187-0.735-0.187-1.326v-1.99L65.352,54.572L65.352,54.572z"/>
	<path fill="#FFFFFF" d="M74.669,55.434l-0.392,0.26c-0.348-0.481-0.807-0.727-1.396-0.727c-0.472,0-0.861,0.163-1.177,0.482
		c-0.308,0.326-0.468,0.724-0.468,1.188c0,0.303,0.076,0.588,0.22,0.854c0.14,0.268,0.342,0.47,0.585,0.618
		c0.248,0.146,0.529,0.222,0.839,0.222c0.573,0,1.034-0.241,1.396-0.729l0.393,0.272c-0.184,0.302-0.436,0.53-0.747,0.694
		c-0.31,0.164-0.664,0.248-1.055,0.248c-0.616,0-1.123-0.211-1.523-0.625c-0.399-0.418-0.604-0.92-0.604-1.521
		c0-0.395,0.095-0.771,0.279-1.109c0.191-0.352,0.448-0.615,0.78-0.81c0.329-0.19,0.69-0.291,1.101-0.291
		c0.252,0,0.502,0.039,0.742,0.127c0.236,0.082,0.439,0.192,0.604,0.327C74.413,55.055,74.552,55.219,74.669,55.434"/>
	<path fill="#FFFFFF" d="M76.883,52.863c0.114,0,0.213,0.045,0.292,0.129c0.078,0.086,0.12,0.191,0.12,0.312
		c0,0.12-0.042,0.221-0.12,0.312c-0.077,0.088-0.178,0.129-0.292,0.129c-0.107,0-0.203-0.041-0.285-0.129
		c-0.078-0.093-0.119-0.189-0.119-0.312c0-0.123,0.041-0.229,0.119-0.312C76.68,52.908,76.775,52.863,76.883,52.863 M76.637,54.572
		h0.494v4.142h-0.494V54.572z"/>
	<path fill="#FFFFFF" d="M81.085,54.464c0.595,0,1.087,0.231,1.472,0.69c0.359,0.422,0.539,0.924,0.539,1.498
		c0,0.576-0.185,1.084-0.562,1.514c-0.38,0.438-0.859,0.65-1.448,0.65c-0.598,0-1.08-0.215-1.449-0.65
		c-0.379-0.43-0.562-0.938-0.562-1.514c0-0.574,0.173-1.069,0.529-1.488C79.988,54.697,80.486,54.464,81.085,54.464 M81.08,54.986
		c-0.41,0-0.764,0.166-1.062,0.483c-0.3,0.331-0.441,0.729-0.441,1.191c0,0.303,0.072,0.583,0.206,0.84
		c0.133,0.258,0.313,0.453,0.546,0.601c0.229,0.142,0.479,0.209,0.754,0.209c0.279,0,0.531-0.067,0.76-0.209
		c0.235-0.146,0.417-0.343,0.551-0.601c0.135-0.257,0.207-0.537,0.207-0.84c0-0.464-0.15-0.86-0.449-1.191
		C81.846,55.152,81.497,54.986,81.08,54.986"/>
	<path fill="#FFFFFF" d="M85.105,54.572h0.496v0.74c0.199-0.283,0.42-0.496,0.664-0.643c0.235-0.135,0.502-0.209,0.783-0.209
		c0.294,0,0.544,0.083,0.771,0.236c0.224,0.154,0.388,0.365,0.494,0.642c0.104,0.263,0.16,0.679,0.16,1.237v2.136h-0.496v-1.979
		c0-0.476-0.021-0.793-0.059-0.957c-0.061-0.272-0.168-0.479-0.333-0.612c-0.159-0.142-0.376-0.212-0.644-0.212
		c-0.297,0-0.562,0.109-0.797,0.318c-0.24,0.22-0.4,0.48-0.478,0.793c-0.045,0.205-0.069,0.578-0.069,1.127v1.521h-0.494V54.572
		L85.105,54.572z"/>
	<path fill="#FFFFFF" d="M93.876,57.342l0.419,0.229c-0.137,0.291-0.293,0.522-0.475,0.701c-0.182,0.186-0.383,0.314-0.605,0.406
		c-0.227,0.092-0.48,0.141-0.763,0.141c-0.634,0-1.124-0.221-1.479-0.664c-0.352-0.443-0.533-0.94-0.533-1.502
		c0-0.522,0.151-0.991,0.451-1.406c0.379-0.518,0.896-0.781,1.533-0.781c0.658,0,1.184,0.271,1.574,0.805
		c0.275,0.377,0.425,0.852,0.426,1.42H90.95c0.007,0.479,0.151,0.875,0.432,1.176c0.278,0.312,0.617,0.467,1.024,0.467
		c0.195,0,0.388-0.033,0.574-0.107c0.184-0.074,0.345-0.175,0.478-0.293C93.586,57.805,93.727,57.609,93.876,57.342 M93.876,56.221
		c-0.065-0.277-0.165-0.513-0.288-0.678c-0.129-0.174-0.295-0.314-0.501-0.413c-0.211-0.104-0.429-0.157-0.655-0.157
		c-0.382,0-0.709,0.131-0.979,0.396c-0.2,0.189-0.351,0.47-0.447,0.852H93.876z"/>
	<path fill="#FFFFFF" d="M98.378,55.023l-0.313,0.354c-0.268-0.273-0.527-0.419-0.774-0.419c-0.167,0-0.306,0.062-0.424,0.177
		c-0.113,0.108-0.173,0.242-0.173,0.396c0,0.14,0.045,0.265,0.146,0.388c0.096,0.117,0.297,0.271,0.6,0.435
		c0.367,0.211,0.621,0.407,0.756,0.597c0.127,0.192,0.188,0.414,0.188,0.651c0,0.34-0.104,0.627-0.335,0.862
		c-0.222,0.235-0.499,0.354-0.832,0.354c-0.226,0-0.438-0.049-0.639-0.155c-0.203-0.103-0.369-0.246-0.501-0.431l0.312-0.381
		c0.256,0.303,0.525,0.461,0.803,0.461c0.201,0,0.371-0.067,0.511-0.203c0.146-0.143,0.209-0.297,0.209-0.487
		c0-0.146-0.044-0.288-0.138-0.407c-0.094-0.115-0.301-0.265-0.631-0.441c-0.345-0.191-0.582-0.377-0.703-0.564
		c-0.125-0.188-0.189-0.4-0.189-0.646c0-0.312,0.104-0.58,0.307-0.787c0.193-0.205,0.449-0.31,0.754-0.31
		C97.659,54.464,98.021,54.65,98.378,55.023"/>
</g>
<g>
	<path fill="#FFFFFF" d="M77.435,23.195c0,1.322-1.036,2.358-2.386,2.358c-1.335,0-2.4-1.037-2.4-2.358c0-1.292,1.065-2.33,2.4-2.33
		C76.398,20.865,77.435,21.903,77.435,23.195z M73.244,23.195c0,1.038,0.768,1.861,1.818,1.861c1.023,0,1.776-0.823,1.776-1.846
		c0-1.038-0.753-1.875-1.79-1.875S73.244,22.172,73.244,23.195z M74.68,24.417h-0.54v-2.33c0.213-0.043,0.511-0.072,0.895-0.072
		c0.44,0,0.639,0.072,0.811,0.17c0.127,0.1,0.227,0.285,0.227,0.513c0,0.255-0.199,0.455-0.482,0.539v0.029
		c0.227,0.085,0.354,0.255,0.426,0.568c0.071,0.355,0.113,0.498,0.171,0.583h-0.583c-0.07-0.085-0.113-0.298-0.185-0.569
		c-0.042-0.255-0.185-0.369-0.482-0.369H74.68V24.417z M74.693,23.095h0.256c0.298,0,0.54-0.098,0.54-0.34
		c0-0.213-0.156-0.355-0.497-0.355c-0.143,0-0.242,0.014-0.299,0.027V23.095z"/>
</g>
</svg>
